<?xml version="1.0" standalone="no"?>
<!DOCTYPE svg PUBLIC "-//W3C//DTD SVG 20010904//EN"
 "http://www.w3.org/TR/2001/REC-SVG-20010904/DTD/svg10.dtd">
<svg version="1.0" xmlns="http://www.w3.org/2000/svg"
 width="1040.000000pt" height="230.000000pt" viewBox="0 0 1040.000000 230.000000"
 preserveAspectRatio="xMidYMid meet">

<g transform="translate(0.000000,230.000000) scale(0.100000,-0.100000)"
fill="#000000" stroke="none">
<path d="M949 2232 l-22 -19 22 -46 c29 -60 64 -89 94 -78 12 5 23 18 25 30 6
38 -59 131 -91 131 -3 0 -15 -8 -28 -18z"/>
<path d="M793 2184 c-8 -21 42 -121 68 -134 23 -13 69 7 69 29 0 9 -13 39 -28
66 -24 45 -31 50 -65 53 -28 2 -39 -1 -44 -14z"/>
<path d="M466 2174 c-3 -9 -6 -51 -6 -95 l0 -79 -175 0 -175 0 0 -171 c0 -192
2 -198 71 -199 62 0 69 12 76 133 l6 107 274 0 c226 0 273 -2 273 -14 0 -8
-12 -54 -26 -102 -52 -181 -126 -263 -321 -356 -90 -42 -123 -63 -123 -76 0
-10 17 -35 38 -55 51 -50 78 -48 201 13 194 98 317 259 376 494 33 132 33 178
-1 205 -24 19 -40 21 -185 21 l-159 0 0 79 c0 71 -2 82 -22 95 -30 22 -114 21
-122 0z"/>
<path d="M3511 2166 c-6 -7 -14 -50 -18 -95 l-6 -81 -124 0 c-129 0 -155 -6
-174 -41 -14 -28 6 -78 35 -84 11 -2 71 -6 133 -7 61 -2 114 -6 118 -9 11 -12
-27 -144 -66 -225 -27 -58 -60 -105 -111 -160 -114 -124 -111 -119 -98 -144
17 -32 66 -58 98 -52 17 3 56 35 105 84 63 65 86 97 126 181 30 61 60 143 75
206 13 56 27 105 29 107 3 3 59 8 126 11 l121 6 0 -59 c0 -32 -5 -102 -10
-154 -23 -224 -39 -250 -149 -250 -64 0 -72 -2 -87 -25 -27 -41 -9 -87 41
-103 61 -20 196 -12 232 14 67 48 99 191 110 490 l6 172 -29 18 c-24 16 -52
19 -191 22 l-163 3 0 83 c0 50 -5 87 -12 94 -17 17 -103 15 -117 -2z"/>
<path d="M5472 2137 c-18 -21 -32 -66 -25 -82 6 -18 96 -81 161 -114 50 -26
73 -21 102 19 39 55 25 76 -104 154 -62 37 -115 46 -134 23z"/>
<path d="M4338 2129 c-13 -7 -18 -23 -18 -54 0 -40 3 -45 28 -52 15 -5 161 -8
325 -8 284 0 299 1 313 19 19 27 18 70 -4 89 -16 15 -53 17 -323 17 -188 0
-311 -5 -321 -11z"/>
<path d="M9570 2125 c-10 -12 -17 -85 -26 -248 -14 -261 -26 -312 -99 -420
-77 -112 -79 -116 -66 -143 12 -28 64 -54 93 -46 58 15 167 195 193 318 31
155 45 478 22 524 -10 20 -21 26 -58 28 -33 2 -50 -2 -59 -13z"/>
<path d="M9857 2033 c-4 -58 -7 -242 -7 -407 l0 -302 43 -42 42 -42 80 48
c157 93 335 246 335 287 0 24 -27 72 -45 79 -31 11 -43 6 -97 -42 -59 -54
-176 -142 -188 -142 -4 0 -10 141 -12 313 -2 226 -7 318 -16 335 -11 19 -21
22 -71 22 l-58 0 -6 -107z"/>
<path d="M2249 2091 c-16 -16 -29 -37 -29 -45 0 -38 210 -226 252 -226 24 0
88 64 88 88 0 34 -216 212 -258 212 -13 0 -37 -13 -53 -29z"/>
<path d="M7285 2089 c-4 -5 -8 -86 -8 -180 l-2 -169 27 -27 c31 -31 80 -35
106 -9 14 13 18 40 20 136 l4 120 269 0 c312 0 282 16 245 -132 -53 -209 -144
-317 -358 -424 -99 -49 -105 -62 -61 -114 45 -54 66 -56 151 -15 166 79 284
191 358 340 48 98 92 251 101 357 5 63 4 68 -21 91 -14 13 -40 27 -57 31 -56
11 -767 7 -774 -5z"/>
<path d="M2902 1837 c-158 -205 -323 -319 -579 -402 -61 -20 -117 -42 -123
-50 -29 -35 33 -125 85 -125 85 0 355 123 486 222 116 87 261 248 288 320 6
16 4 35 -6 58 -14 35 -50 80 -64 80 -4 0 -43 -46 -87 -103z"/>
<path d="M5302 1878 c-11 -13 -24 -35 -27 -50 -9 -33 14 -55 127 -120 74 -43
84 -46 102 -34 35 23 59 72 46 95 -19 37 -172 131 -213 131 -7 0 -23 -10 -35
-22z"/>
<path d="M1290 1883 c-37 -7 -50 -22 -50 -59 0 -18 6 -36 13 -41 6 -4 65 -10
130 -13 l118 -5 2 -183 2 -182 -125 -1 c-69 -1 -138 -4 -155 -8 -28 -6 -30
-10 -33 -54 -5 -71 -5 -71 393 -71 393 0 388 -1 383 72 -3 43 -5 47 -33 53
-16 4 -87 7 -157 8 l-128 1 0 185 0 184 133 3 132 3 0 50 0 50 -40 7 c-43 7
-544 8 -585 1z"/>
<path d="M6082 1870 c-18 -11 -32 -24 -32 -28 0 -5 -36 -48 -81 -95 -146 -156
-289 -247 -509 -321 -57 -20 -113 -45 -125 -56 l-20 -20 25 -48 c21 -40 30
-47 58 -50 68 -7 301 90 437 181 135 90 295 242 336 319 15 28 -2 86 -34 116
l-23 21 -32 -19z"/>
<path d="M6484 1860 c-33 -4 -66 -10 -72 -14 -7 -4 -12 -27 -12 -51 0 -36 4
-45 23 -51 12 -4 102 -7 199 -6 97 1 179 -1 182 -6 5 -9 -20 -227 -33 -277
l-7 -30 -210 -5 c-133 -4 -217 -10 -230 -18 -13 -7 -24 -26 -29 -49 -12 -63 4
-69 214 -78 98 -4 263 -4 366 0 164 7 190 10 206 26 26 26 24 61 -6 89 -20 19
-40 25 -90 28 -36 2 -65 5 -65 7 0 1 9 60 20 131 10 71 21 160 22 198 3 69 3
70 -31 93 -33 22 -41 23 -210 22 -97 -1 -203 -5 -237 -9z"/>
<path d="M4248 1853 c-47 -5 -60 -22 -56 -75 l3 -43 195 -3 c107 -1 197 -6
201 -10 12 -13 -11 -134 -35 -187 -13 -28 -57 -87 -100 -133 -83 -89 -94 -118
-51 -146 36 -24 75 -20 126 12 60 39 113 102 155 187 33 67 63 180 64 236 l0
26 171 5 c188 6 202 10 202 68 0 66 10 65 -436 66 -221 1 -419 -1 -439 -3z"/>
<path d="M8321 1782 c-26 -37 -27 -82 -2 -113 l19 -24 414 0 c318 0 418 3 436
13 18 11 22 21 22 67 0 46 -4 56 -22 67 -18 10 -123 14 -434 16 l-411 4 -22
-30z"/>
<path d="M6071 1020 c-107 -23 -181 -109 -181 -210 0 -95 44 -159 170 -248
122 -86 180 -135 200 -167 24 -39 27 -123 5 -164 -17 -34 -87 -71 -133 -71
-41 0 -99 24 -130 53 -35 32 -71 109 -83 175 -6 31 -14 61 -19 66 -13 13 -23
-136 -15 -230 l7 -86 19 31 19 31 37 -16 c98 -42 124 -47 222 -42 53 3 112 12
132 20 46 20 106 73 126 112 22 42 23 160 1 201 -22 42 -95 108 -203 184 -151
107 -185 147 -185 216 0 45 21 87 56 110 36 24 114 23 156 -2 44 -25 95 -94
109 -146 6 -23 16 -53 22 -67 l10 -25 8 25 c9 33 10 153 0 210 -8 45 -8 45
-19 18 -14 -34 -25 -35 -94 -3 -61 28 -168 39 -237 25z"/>
<path d="M3760 1001 c-6 -12 -74 -182 -151 -378 -135 -344 -172 -424 -206
-438 -25 -9 -58 29 -167 195 -160 243 -198 308 -190 322 16 28 147 178 188
216 24 22 64 51 88 64 l43 23 -129 3 c-118 2 -163 -3 -127 -16 25 -9 51 -42
51 -65 0 -71 -163 -263 -258 -304 -18 -7 -37 -11 -42 -8 -13 8 -13 306 0 340
6 15 20 30 32 33 21 5 21 6 2 13 -26 10 -264 10 -289 -1 -15 -6 -16 -9 -4 -9
9 -1 24 -10 35 -22 18 -20 19 -41 19 -383 0 -395 -1 -399 -57 -412 -33 -8 -32
-8 17 -15 65 -9 217 -9 275 0 l45 7 -33 11 c-19 7 -36 22 -42 38 -6 15 -10
103 -10 196 0 144 2 169 15 169 29 0 67 -50 190 -251 41 -68 75 -126 75 -131
0 -4 -12 -14 -26 -21 -25 -13 -24 -14 42 -20 85 -8 340 -7 414 1 l55 7 -48 18
c-35 14 -49 25 -54 45 -7 30 17 136 46 205 l21 48 132 -7 c73 -4 136 -9 139
-13 17 -18 73 -192 73 -231 1 -43 0 -44 -39 -55 l-40 -12 64 -6 c79 -9 248 -9
278 -1 23 6 23 6 -7 42 -27 33 -106 222 -278 667 l-57 150 -37 3 c-29 2 -39
-1 -48 -17z m-15 -241 c9 -25 35 -93 56 -152 l38 -108 -118 0 c-65 0 -120 3
-124 6 -3 3 7 42 24 86 52 142 91 230 99 221 4 -4 15 -28 25 -53z"/>
<path d="M9051 998 c-245 -634 -298 -759 -342 -804 l-30 -31 32 -7 c38 -7 133
-6 174 3 l30 6 -42 13 c-24 7 -47 21 -53 32 -17 31 -11 91 18 175 l27 80 135
8 c110 6 137 5 145 -6 5 -8 28 -67 50 -131 43 -130 42 -142 -15 -161 l-35 -12
64 -6 c78 -8 189 -8 256 2 48 6 49 7 26 20 -31 17 -63 91 -216 486 -69 182
-134 336 -143 343 -27 21 -71 15 -81 -10z m17 -315 c72 -197 78 -177 -60 -181
-92 -2 -118 0 -118 10 0 8 23 72 51 143 28 72 53 138 56 148 3 9 9 17 13 17 4
0 30 -62 58 -137z"/>
<path d="M50 1001 l-25 -7 23 -6 c28 -8 42 -37 227 -488 l141 -345 43 0 43 0
118 320 c157 426 156 423 201 477 21 26 39 49 39 52 0 9 -161 5 -190 -4 -14
-4 -18 -8 -9 -9 8 -1 26 -13 40 -27 39 -42 32 -110 -34 -294 -82 -233 -118
-323 -127 -313 -10 11 -206 509 -218 556 -14 49 -7 67 30 74 21 4 26 8 16 14
-16 10 -282 10 -318 0z"/>
<path d="M940 1000 c-23 -7 -24 -8 -3 -9 51 -2 53 -17 53 -407 0 -199 -3 -369
-6 -378 -3 -8 -22 -21 -42 -28 l-37 -13 65 -6 c36 -4 185 -7 333 -8 l267 -1 0
140 c0 85 -4 140 -10 140 -5 0 -12 -12 -16 -27 -18 -87 -59 -161 -107 -197
-23 -17 -46 -22 -120 -24 -51 -1 -99 2 -107 7 -12 8 -16 45 -18 201 l-3 190
43 -6 c72 -11 91 -25 124 -92 22 -45 33 -58 38 -47 8 23 6 264 -3 295 -7 23
-10 21 -34 -32 -30 -66 -72 -98 -129 -98 l-38 0 0 173 c0 217 -3 212 112 212
129 0 164 -27 210 -165 21 -62 22 -64 29 -35 4 17 9 74 11 128 l3 97 -295 -1
c-162 -1 -306 -5 -320 -9z"/>
<path d="M1700 1001 c0 -5 11 -12 25 -15 15 -4 30 -18 35 -32 11 -29 12 -685
1 -724 -4 -14 -23 -34 -45 -46 l-39 -22 66 -7 c36 -4 89 -4 119 0 l53 8 -47
19 c-26 11 -50 27 -54 36 -11 25 -16 435 -7 518 l8 71 224 -284 c256 -323 299
-373 328 -373 19 0 20 8 27 392 7 416 9 428 56 443 42 13 6 25 -80 25 -86 0
-126 -13 -76 -26 13 -3 34 -17 47 -30 22 -23 23 -30 26 -272 l4 -247 -42 45
c-22 25 -129 154 -237 288 l-195 242 -99 0 c-54 0 -98 -4 -98 -9z"/>
<path d="M4253 923 c4 -49 7 -113 7 -143 1 -51 2 -53 15 -36 8 11 15 27 15 35
0 29 57 135 87 164 30 28 79 47 121 47 l23 0 -3 -388 c-2 -302 -6 -392 -16
-405 -7 -8 -32 -19 -55 -23 l-42 -8 55 -7 c71 -9 260 -9 330 0 l55 7 -48 8
c-33 6 -51 15 -60 30 -9 15 -13 125 -15 404 l-3 382 33 0 c18 0 52 -9 75 -20
63 -28 97 -87 139 -238 2 -7 8 -10 14 -7 6 4 10 63 10 146 l0 139 -371 0 -372
0 6 -87z"/>
<path d="M5115 1000 c-22 -6 -24 -8 -9 -9 11 0 29 -10 40 -22 18 -20 19 -41
19 -383 0 -395 0 -398 -57 -412 -51 -13 103 -22 396 -23 l249 -1 -7 52 c-3 29
-6 92 -6 141 0 48 -3 87 -7 87 -5 0 -18 -33 -31 -72 -31 -97 -55 -133 -106
-157 -56 -28 -196 -30 -217 -4 -11 12 -15 63 -17 201 l-4 184 44 -7 c73 -12
98 -31 127 -96 14 -32 29 -59 33 -59 10 0 9 242 -1 295 l-7 40 -28 -58 c-32
-67 -72 -97 -130 -97 l-38 0 3 184 c2 102 7 188 11 191 13 13 133 17 174 6 78
-21 118 -71 144 -181 18 -77 28 -44 29 98 l1 112 -287 -1 c-159 -1 -301 -5
-318 -9z"/>
<path d="M6610 1001 l-25 -7 27 -7 c46 -12 50 -47 46 -422 -2 -187 -7 -348
-12 -357 -4 -10 -24 -23 -44 -30 l-35 -13 49 -7 c66 -8 196 -9 263 -1 l54 6
-34 16 c-19 9 -36 26 -40 41 -4 14 -7 98 -8 188 l-1 162 165 0 165 0 -1 -157
c-2 -198 -5 -213 -48 -234 l-34 -16 54 -6 c69 -9 179 -9 248 0 l54 6 -34 16
c-19 9 -36 26 -40 41 -11 39 -10 705 1 734 5 15 20 28 36 32 56 14 -4 24 -148
24 -147 0 -179 -7 -132 -28 38 -18 44 -50 44 -223 l0 -159 -165 0 -165 0 0
165 c0 172 7 210 43 221 16 5 17 8 6 15 -16 10 -253 10 -289 0z"/>
<path d="M7517 983 c36 -35 63 -100 201 -488 61 -171 114 -318 117 -327 5 -13
18 -18 49 -18 l42 0 68 213 c97 303 106 324 119 301 6 -10 48 -129 93 -264
l83 -245 41 0 42 0 54 175 c30 96 84 269 121 384 64 198 70 211 112 252 l44
44 -122 0 c-79 0 -120 -4 -116 -10 3 -6 12 -10 19 -10 7 0 25 -11 40 -25 47
-44 37 -119 -59 -422 -26 -84 -52 -150 -56 -148 -14 9 -179 523 -179 558 0 11
12 23 31 31 47 20 17 26 -131 26 -155 0 -168 -3 -135 -33 22 -21 75 -148 90
-215 5 -25 -6 -70 -50 -202 -31 -94 -60 -170 -65 -170 -14 0 -190 511 -190
554 0 13 7 29 15 36 28 24 -4 30 -159 30 l-148 0 29 -27z"/>
<path d="M9585 1002 l-30 -4 35 -12 c29 -9 36 -17 43 -51 4 -22 7 -193 5 -381
-3 -371 -2 -366 -61 -380 -30 -8 -29 -9 23 -15 72 -9 212 -9 275 0 49 7 50 7
17 15 -50 12 -56 33 -60 219 l-4 167 51 0 c100 0 118 -24 157 -206 13 -63 30
-130 38 -148 33 -79 215 -90 280 -18 l18 21 -37 -10 c-52 -15 -61 -3 -94 122
-37 137 -44 151 -81 182 -28 24 -110 56 -149 58 -9 0 18 11 59 24 124 40 189
113 190 213 0 57 -23 105 -72 146 -48 42 -103 56 -205 55 -71 -1 -74 -2 -38
-10 86 -20 121 -92 113 -229 -7 -121 -51 -167 -169 -177 l-61 -6 4 184 c4 189
12 228 46 230 11 1 8 4 -8 9 -26 8 -234 10 -285 2z"/>
</g>
</svg>
